<svg xmlns="http://www.w3.org/2000/svg" width="72.00" height="41.57" viewBox="0 0 72.00 41.57"><g fill="none" stroke="#E77E23" stroke-width="1" stroke-opacity="0.1"><path d="M-12.00 -20.78 L-24.00 0.00 L-48.00 0.00 L-60.00 -20.78 L-48.00 -41.57 L-24.00 -41.57 Z"></path><path d="M-12.00 20.78 L-24.00 41.57 L-48.00 41.57 L-60.00 20.78 L-48.00 0.00 L-24.00 0.00 Z"></path><path d="M-12.00 62.35 L-24.00 83.14 L-48.00 83.14 L-60.00 62.35 L-48.00 41.57 L-24.00 41.57 Z"></path><path d="M-12.00 103.92 L-24.00 124.71 L-48.00 124.71 L-60.00 103.92 L-48.00 83.14 L-24.00 83.14 Z"></path><path d="M-12.00 145.49 L-24.00 166.28 L-48.00 166.28 L-60.00 145.49 L-48.00 124.71 L-24.00 124.71 Z"></path><path d="M24.00 -41.57 L12.00 -20.78 L-12.00 -20.78 L-24.00 -41.57 L-12.00 -62.35 L12.00 -62.35 Z"></path><path d="M24.00 0.00 L12.00 20.78 L-12.00 20.78 L-24.00 0.00 L-12.00 -20.78 L12.00 -20.78 Z"></path><path d="M24.00 41.57 L12.00 62.35 L-12.00 62.35 L-24.00 41.57 L-12.00 20.78 L12.00 20.78 Z"></path><path d="M24.00 83.14 L12.00 103.92 L-12.00 103.92 L-24.00 83.14 L-12.00 62.35 L12.00 62.35 Z"></path><path d="M24.00 124.71 L12.00 145.49 L-12.00 145.49 L-24.00 124.71 L-12.00 103.92 L12.00 103.92 Z"></path><path d="M60.00 -20.78 L48.00 0.00 L24.00 0.00 L12.00 -20.78 L24.00 -41.57 L48.00 -41.57 Z"></path><path d="M60.00 20.78 L48.00 41.57 L24.00 41.57 L12.00 20.78 L24.00 0.00 L48.00 0.00 Z"></path><path d="M60.00 62.35 L48.00 83.14 L24.00 83.14 L12.00 62.35 L24.00 41.57 L48.00 41.57 Z"></path><path d="M60.00 103.92 L48.00 124.71 L24.00 124.71 L12.00 103.92 L24.00 83.14 L48.00 83.14 Z"></path><path d="M60.00 145.49 L48.00 166.28 L24.00 166.28 L12.00 145.49 L24.00 124.71 L48.00 124.71 Z"></path><path d="M96.00 -41.57 L84.00 -20.78 L60.00 -20.78 L48.00 -41.57 L60.00 -62.35 L84.00 -62.35 Z"></path><path d="M96.00 0.00 L84.00 20.78 L60.00 20.78 L48.00 0.00 L60.00 -20.78 L84.00 -20.78 Z"></path><path d="M96.00 41.57 L84.00 62.35 L60.00 62.35 L48.00 41.57 L60.00 20.78 L84.00 20.78 Z"></path><path d="M96.00 83.14 L84.00 103.92 L60.00 103.92 L48.00 83.14 L60.00 62.35 L84.00 62.35 Z"></path><path d="M96.00 124.71 L84.00 145.49 L60.00 145.49 L48.00 124.71 L60.00 103.92 L84.00 103.92 Z"></path><path d="M132.00 -20.78 L120.00 0.00 L96.00 0.00 L84.00 -20.78 L96.00 -41.57 L120.00 -41.57 Z"></path><path d="M132.00 20.78 L120.00 41.57 L96.00 41.57 L84.00 20.78 L96.00 0.00 L120.00 0.00 Z"></path><path d="M132.00 62.35 L120.00 83.14 L96.00 83.14 L84.00 62.35 L96.00 41.57 L120.00 41.57 Z"></path><path d="M132.00 103.92 L120.00 124.71 L96.00 124.71 L84.00 103.92 L96.00 83.14 L120.00 83.14 Z"></path><path d="M132.00 145.49 L120.00 166.28 L96.00 166.28 L84.00 145.49 L96.00 124.71 L120.00 124.71 Z"></path></g></svg>